PathFileType	4	(X/Y/Z)	/home/nbianco/projects/addbio/data/HamnerRunning2013/Processed/subject02//results/MarkerData/run400.trc
DataRate	CameraRate	NumFrames	NumMarkers	Units	OrigDataRate	OrigDataStartFrame	OrigNumFrames
120.005	120.005	8	42	m	120.005	95	255
Frame#	Time	C7			CLAV			LACR			LASI			LCAL			LFAradius			LFAsuperior			LFAulna			LLEL			LMEL			LMT5			LPSI			LTB1			LTB2			LTB3			LTH1			LTH2			LTH3			LTOE			LUA1			LUA2			LUA3			RACR			RASI			RCAL			RFAradius			RFAsuperior			RFAulna			RLEL			RMEL			RMT5			RPSI			RTB1			RTB2			RTB3			RTH1			RTH2			RTH3			RTOE			RUA1			RUA2			RUA3		
		X1	Y1	Z1	X2	Y2	Z2	X3	Y3	Z3	X4	Y4	Z4	X5	Y5	Z5	X6	Y6	Z6	X7	Y7	Z7	X8	Y8	Z8	X9	Y9	Z9	X10	Y10	Z10	X11	Y11	Z11	X12	Y12	Z12	X13	Y13	Z13	X14	Y14	Z14	X15	Y15	Z15	X16	Y16	Z16	X17	Y17	Z17	X18	Y18	Z18	X19	Y19	Z19	X20	Y20	Z20	X21	Y21	Z21	X22	Y22	Z22	X23	Y23	Z23	X24	Y24	Z24	X25	Y25	Z25	X26	Y26	Z26	X27	Y27	Z27	X28	Y28	Z28	X29	Y29	Z29	X30	Y30	Z30	X31	Y31	Z31	X32	Y32	Z32	X33	Y33	Z33	X34	Y34	Z34	X35	Y35	Z35	X36	Y36	Z36	X37	Y37	Z37	X38	Y38	Z38	X39	Y39	Z39	X40	Y40	Z40	X41	Y41	Z41	X42	Y42	Z42

96	0.891667	0.891432	1.52816	-0.292463	1.00662	1.43741	-0.23852	1.01183	1.49929	-0.447634	0.97211	1.01638	-0.430092	0.428829	0.57492	-0.31186	1.05771	1.16773	-0.40329	0.961437	1.16883	-0.559108	1.05807	1.09793	-0.425398	0.879825	1.18739	-0.611561	0.812078	1.18886	-0.552347	0.341503	0.440074	-0.402349	0.78344	1.05476	-0.35942	0.737782	0.429458	-0.36438	0.648373	0.463671	-0.411122	0.536193	0.455928	-0.344519	0.893638	0.795802	-0.47089	0.928398	0.667982	-0.456405	0.849168	0.57039	-0.434082	0.353116	0.354711	-0.328944	0.998046	1.4135	-0.529572	0.992491	1.34112	-0.525003	0.897735	1.34684	-0.551429	0.934481	1.48389	-0.11185	0.941929	1.03931	-0.174411	0.948341	0.102574	-0.31289	0.957726	1.10938	-0.0327969	0.797784	1.17264	0.0322185	0.930993	1.06982	0.0211097	0.701564	1.21622	0.0163808	0.691839	1.20252	-0.0648617	1.1134	0.0525305	-0.23724	0.769495	1.05411	-0.277648	1.12066	0.407751	-0.280068	1.09611	0.338756	-0.216837	1.08764	0.243719	-0.293706	0.918428	0.873178	-0.121668	1.01353	0.794163	-0.134188	0.995365	0.666276	-0.177808	1.18198	0.0742854	-0.333569	0.872644	1.4001	-0.0392151	0.848226	1.31267	-0.0383007	0.771443	1.332	-0.0318353
97	0.9	0.892528	1.52362	-0.291318	1.00785	1.43035	-0.239493	1.01045	1.49154	-0.450041	0.968002	1.00963	-0.430171	0.453273	0.57906	-0.314773	1.05312	1.14743	-0.40729	0.954783	1.15679	-0.562303	1.0503	1.07836	-0.430549	0.873435	1.18038	-0.612733	0.806569	1.18255	-0.552764	0.367049	0.445331	-0.407649	0.779122	1.04878	-0.360692	0.760042	0.424929	-0.366153	0.672161	0.461776	-0.412758	0.559613	0.4572	-0.346911	0.898054	0.789981	-0.470865	0.938772	0.663827	-0.457104	0.86533	0.562961	-0.433351	0.375854	0.359593	-0.333939	0.995927	1.4036	-0.530789	0.988688	1.33138	-0.525763	0.894427	1.33882	-0.552957	0.935927	1.47674	-0.111098	0.937745	1.03517	-0.173789	0.916627	0.103421	-0.3132	0.971848	1.09737	-0.0319993	0.812317	1.15714	0.0381641	0.947673	1.05812	0.0231324	0.715256	1.19933	0.0243174	0.703378	1.18487	-0.0561872	1.08107	0.0521804	-0.237437	0.765087	1.04787	-0.27994	1.10665	0.403705	-0.280937	1.08009	0.33587	-0.217155	1.06476	0.241509	-0.293754	0.912487	0.869612	-0.121501	1.00697	0.789191	-0.132254	0.9889	0.661867	-0.178763	1.14994	0.0731296	-0.334041	0.878792	1.38742	-0.0365709	0.85614	1.30018	-0.0360894	0.779324	1.31666	-0.0251936
98	0.908333	0.893648	1.51975	-0.290562	1.00857	1.42421	-0.24076	1.00832	1.4846	-0.452143	0.963807	1.00409	-0.431266	0.477467	0.581387	-0.318335	1.04788	1.12732	-0.41152	0.947502	1.14498	-0.564831	1.04199	1.05906	-0.436088	0.867163	1.174	-0.61352	0.801238	1.17676	-0.552871	0.393964	0.447129	-0.412715	0.775108	1.04412	-0.361918	0.783728	0.420833	-0.367548	0.697204	0.459817	-0.414457	0.584305	0.457525	-0.34908	0.90218	0.785246	-0.471092	0.950226	0.661145	-0.457503	0.882781	0.557173	-0.432927	0.400695	0.361743	-0.338105	0.993451	1.3945	-0.531542	0.984855	1.3225	-0.525945	0.89122	1.33177	-0.554433	0.937269	1.4707	-0.110621	0.934374	1.0328	-0.172762	0.88492	0.104085	-0.313568	0.986694	1.08542	-0.0321911	0.828441	1.14223	0.0433515	0.965346	1.04706	0.0248396	0.730395	1.18317	0.031871	0.716186	1.16774	-0.0477343	1.04867	0.0513023	-0.237479	0.761466	1.04327	-0.28195	1.09044	0.3971	-0.280718	1.06088	0.330161	-0.217235	1.04013	0.237201	-0.293572	0.90643	0.865873	-0.121701	0.999264	0.783396	-0.131362	0.980131	0.656685	-0.180237	1.11817	0.0709583	-0.333639	0.885344	1.37613	-0.0343947	0.864722	1.28872	-0.0344889	0.788282	1.30224	-0.018559
99	0.916667	0.894167	1.51618	-0.290276	1.00886	1.4189	-0.242251	1.00565	1.47849	-0.453718	0.959853	0.999652	-0.432909	0.501064	0.581916	-0.322449	1.04214	1.10842	-0.416054	0.93999	1.1345	-0.566036	1.03315	1.04106	-0.441923	0.861091	1.16857	-0.613881	0.795848	1.17184	-0.552822	0.421551	0.445689	-0.41736	0.771502	1.04059	-0.362803	0.808574	0.417758	-0.368581	0.72313	0.457895	-0.416295	0.609872	0.456885	-0.351136	0.906369	0.781237	-0.471314	0.962944	0.65973	-0.457633	0.901651	0.552985	-0.432998	0.427254	0.361161	-0.341473	0.990406	1.38683	-0.531945	0.981013	1.31488	-0.525614	0.888088	1.32605	-0.555605	0.93885	1.46554	-0.110539	0.931591	1.03187	-0.171336	0.852927	0.104699	-0.31402	1.00257	1.07484	-0.0332369	0.846562	1.1291	0.0474135	0.984115	1.03751	0.0259872	0.747054	1.16847	0.0389174	0.730124	1.1519	-0.0397595	1.01603	0.0505108	-0.23748	0.758481	1.04035	-0.283271	1.07221	0.388858	-0.279885	1.03907	0.322744	-0.217329	1.01402	0.231883	-0.293611	0.900376	0.862374	-0.121876	0.990639	0.777266	-0.130927	0.969494	0.651496	-0.181644	1.08619	0.0685706	-0.333062	0.89176	1.36728	-0.0330297	0.874022	1.27892	-0.0333279	0.798236	1.28953	-0.0127177
100	0.925	0.893769	1.51275	-0.290274	1.00882	1.41437	-0.24389	1.00271	1.47318	-0.454854	0.956271	0.996073	-0.434343	0.523853	0.58059	-0.326972	1.03612	1.09189	-0.420959	0.932842	1.12654	-0.565805	1.0238	1.02553	-0.447819	0.855047	1.16433	-0.613997	0.789952	1.16812	-0.552896	0.449228	0.441321	-0.421456	0.768297	1.03795	-0.363152	0.834275	0.416188	-0.369286	0.749536	0.456075	-0.418152	0.63587	0.455245	-0.353265	0.910919	0.77791	-0.471339	0.976747	0.659691	-0.457558	0.921808	0.550478	-0.433561	0.455073	0.357959	-0.344104	0.986673	1.38081	-0.532273	0.97699	1.30865	-0.525018	0.884878	1.32167	-0.556368	0.940945	1.46103	-0.110846	0.929025	1.03151	-0.169974	0.820532	0.105385	-0.31442	1.01959	1.06717	-0.0349211	0.866574	1.11884	0.0501325	1.00389	1.03026	0.0260908	0.765002	1.1559	0.0453025	0.744948	1.13801	-0.0324988	0.983086	0.0501051	-0.237462	0.755869	1.03879	-0.283747	1.05217	0.380483	-0.278945	1.01566	0.315368	-0.217372	0.986905	0.226915	-0.293764	0.894306	0.859684	-0.121724	0.981564	0.771556	-0.130415	0.957639	0.64698	-0.18236	1.05362	0.0670165	-0.332941	0.897613	1.36115	-0.0324614	0.883885	1.27114	-0.0323642	0.808754	1.27904	-0.00845839
101	0.933333	0.89267	1.50964	-0.290233	1.00853	1.4107	-0.245616	0.999636	1.46872	-0.455849	0.953057	0.993161	-0.435045	0.545716	0.577284	-0.331746	1.02991	1.07889	-0.426191	0.92626	1.12184	-0.564931	1.01408	1.01354	-0.453447	0.848577	1.16149	-0.614219	0.783136	1.16584	-0.553345	0.476604	0.434264	-0.424906	0.765471	1.03605	-0.363004	0.86053	0.416339	-0.369711	0.776033	0.454442	-0.419837	0.661866	0.452644	-0.355602	0.915917	0.775577	-0.471123	0.991179	0.661484	-0.457347	0.942817	0.549983	-0.434473	0.48371	0.352319	-0.346017	0.982262	1.37633	-0.532839	0.972479	1.30376	-0.52458	0.881256	1.3185	-0.556847	0.943656	1.45714	-0.111425	0.926441	1.0308	-0.16933	0.787843	0.106221	-0.314669	1.03748	1.06359	-0.0372374	0.887639	1.11201	0.0515032	1.02436	1.02598	0.0245197	0.783664	1.14587	0.0508481	0.760273	1.12651	-0.0260896	0.949884	0.0499958	-0.237399	0.753443	1.03823	-0.283549	1.03053	0.373167	-0.278141	0.991471	0.309288	-0.217155	0.959146	0.223048	-0.293732	0.888227	0.858077	-0.121184	0.97239	0.766807	-0.12968	0.945067	0.643337	-0.182024	1.02044	0.0666676	-0.333491	0.902998	1.35709	-0.032357	0.894013	1.26537	-0.0314632	0.819271	1.27079	-0.00613752
102	0.941667	0.891451	1.50727	-0.289916	1.00811	1.40801	-0.247395	0.99641	1.46528	-0.456999	0.950197	0.990925	-0.434986	0.566572	0.571846	-0.336601	1.0234	1.07032	-0.431572	0.919632	1.12025	-0.564806	1.00424	1.00586	-0.458546	0.841137	1.16028	-0.614873	0.775241	1.16514	-0.55422	0.503524	0.424647	-0.427656	0.763042	1.03488	-0.36261	0.887027	0.418156	-0.36993	0.802287	0.45316	-0.421238	0.687506	0.449227	-0.35808	0.921273	0.774701	-0.470728	1.00568	0.665622	-0.457055	0.96402	0.551955	-0.435508	0.512875	0.344417	-0.347225	0.977255	1.3731	-0.533847	0.967191	1.30018	-0.524777	0.876753	1.31651	-0.557331	0.946905	1.45412	-0.112133	0.923834	1.02932	-0.169738	0.755068	0.10724	-0.314811	1.05556	1.06465	-0.040518	0.908429	1.10849	0.0516813	1.04499	1.02516	0.0207327	0.802261	1.13849	0.0553854	0.775657	1.11751	-0.0205959	0.916507	0.0499353	-0.2373	0.751151	1.03839	-0.283053	1.00755	0.36727	-0.277431	0.96678	0.304752	-0.216561	0.930904	0.220249	-0.293409	0.882193	0.857371	-0.120399	0.963215	0.763109	-0.12887	0.932007	0.640351	-0.18063	0.986887	0.0670625	-0.334401	0.908568	1.35411	-0.0323423	0.904119	1.26141	-0.0306955	0.829414	1.26453	-0.0054544
103	0.95	0.890628	1.50598	-0.289306	1.0077	1.40635	-0.249234	0.992927	1.46307	-0.458432	0.947761	0.989567	-0.434433	0.586374	0.56417	-0.341348	1.01635	1.06666	-0.43686	0.911795	1.12093	-0.566531	0.99458	1.00279	-0.463097	0.832372	1.16091	-0.616047	0.766419	1.16616	-0.555308	0.530103	0.412553	-0.429723	0.76105	1.03454	-0.36228	0.91341	0.421448	-0.37003	0.828034	0.452463	-0.422367	0.712626	0.445182	-0.360406	0.926861	0.775641	-0.470248	1.0197	0.67231	-0.456714	0.9847	0.556681	-0.436424	0.542552	0.334393	-0.347805	0.971712	1.37109	-0.535316	0.960999	1.29808	-0.525935	0.870948	1.31595	-0.558059	0.950531	1.45234	-0.112902	0.92134	1.02729	-0.17087	0.722354	0.108469	-0.314945	1.07293	1.07024	-0.0452357	0.927728	1.10766	0.0508452	1.06517	1.02812	0.0145396	0.820098	1.13352	0.0587855	0.790769	1.11094	-0.0161181	0.883018	0.0497556	-0.237218	0.749049	1.03915	-0.282621	0.983434	0.362445	-0.276674	0.941407	0.301263	-0.215671	0.902165	0.218085	-0.29293	0.876202	0.857125	-0.119599	0.953996	0.760212	-0.128158	0.918482	0.637726	-0.178455	0.953292	0.0674164	-0.335117	0.915102	1.35164	-0.0322867	0.914047	1.25905	-0.0302937	0.839184	1.26004	-0.00559994
